<mxfile host="drawio-plugin" modified="2021-10-16T13:16:41.340Z" agent="5.0 (Windows NT 6.2; Win64; x64) AppleWebKit/537.36 (KHTML, like Gecko) Chrome/89.0.4389.114 Safari/537.36" version="14.7.4" etag="EW-gkpIZJDu4xTs8Upt8" type="embed"><diagram id="hTq8dJ0K4O_bUDsaxEMX" name="Page-1"><mxGraphModel dx="1353" dy="395" grid="1" gridSize="10" guides="1" tooltips="1" connect="1" arrows="1" fold="1" page="1" pageScale="1" pageWidth="850" pageHeight="1100" math="0" shadow="0"><root><mxCell id="0"/><mxCell id="1" parent="0"/><mxCell id="2" value="" style="shape=actor;whiteSpace=wrap;html=1;" vertex="1" parent="1"><mxGeometry x="10" y="10" width="40" height="60" as="geometry"/></mxCell><mxCell id="3" value="USER" style="text;html=1;align=center;verticalAlign=middle;resizable=0;points=[];autosize=1;strokeColor=none;" vertex="1" parent="1"><mxGeometry x="40" y="10" width="50" height="20" as="geometry"/></mxCell><mxCell id="4" value="&amp;nbsp;+ REGISTER AND LOGIN" style="html=1;shadow=0;dashed=0;shape=mxgraph.bootstrap.rrect;rSize=5;strokeColor=none;strokeWidth=1;fillColor=#33A64C;fontColor=#FFFFFF;whiteSpace=wrap;align=center;verticalAlign=middle;spacingLeft=0;fontStyle=0;fontSize=16;spacing=5;" vertex="1" parent="1"><mxGeometry x="120" y="20" width="210" height="40" as="geometry"/></mxCell><mxCell id="5" value="" style="html=1;shadow=0;dashed=0;shape=mxgraph.bootstrap.rrect;rSize=5;fillColor=#ffffff;strokeColor=#999999;" vertex="1" parent="1"><mxGeometry x="115" y="80" width="220" height="345" as="geometry"/></mxCell><mxCell id="6" value="Email address" style="fillColor=none;strokeColor=none;align=left;spacing=20;fontSize=14;" vertex="1" parent="5"><mxGeometry width="220" height="40" relative="1" as="geometry"><mxPoint y="10" as="offset"/></mxGeometry></mxCell><mxCell id="7" value="email@example.com" style="html=1;shadow=0;dashed=0;shape=mxgraph.bootstrap.rrect;rSize=5;fillColor=none;strokeColor=#999999;align=left;spacing=15;fontSize=14;fontColor=#6C767D;" vertex="1" parent="5"><mxGeometry width="180" height="30" relative="1" as="geometry"><mxPoint x="20" y="50" as="offset"/></mxGeometry></mxCell><mxCell id="8" value="Password" style="fillColor=none;strokeColor=none;align=left;spacing=20;fontSize=14;" vertex="1" parent="5"><mxGeometry width="220" height="40" relative="1" as="geometry"><mxPoint y="90" as="offset"/></mxGeometry></mxCell><mxCell id="9" value="Password" style="html=1;shadow=0;dashed=0;shape=mxgraph.bootstrap.rrect;rSize=5;fillColor=none;strokeColor=#999999;align=left;spacing=15;fontSize=14;fontColor=#6C767D;" vertex="1" parent="5"><mxGeometry width="180" height="30" relative="1" as="geometry"><mxPoint x="20" y="130" as="offset"/></mxGeometry></mxCell><mxCell id="10" value="Remember me" style="html=1;shadow=0;dashed=0;shape=mxgraph.bootstrap.rrect;rSize=2;fillColor=#EDEDED;strokeColor=#999999;align=left;fontSize=14;fontColor=#000000;labelPosition=right;verticalLabelPosition=middle;verticalAlign=middle;spacingLeft=5;spacingTop=-2;gradientColor=#DEDEDE;" vertex="1" parent="5"><mxGeometry width="10" height="10" relative="1" as="geometry"><mxPoint x="20" y="180" as="offset"/></mxGeometry></mxCell><mxCell id="11" value="Sign in" style="html=1;shadow=0;dashed=0;shape=mxgraph.bootstrap.rrect;rSize=5;fillColor=#0085FC;strokeColor=none;align=center;fontSize=14;fontColor=#FFFFFF;" vertex="1" parent="5"><mxGeometry width="70" height="40" relative="1" as="geometry"><mxPoint x="20" y="210" as="offset"/></mxGeometry></mxCell><mxCell id="12" value="" style="shape=line;strokeColor=#999999;perimeter=none;resizeWidth=1;" vertex="1" parent="5"><mxGeometry width="220" height="10" relative="1" as="geometry"><mxPoint y="260" as="offset"/></mxGeometry></mxCell><mxCell id="13" value="New around here? Sign up&lt;br&gt;&lt;br&gt;Forgot password?" style="html=1;fillColor=none;strokeColor=none;align=left;spacing=20;fontSize=14;" vertex="1" parent="5"><mxGeometry width="220" height="60" relative="1" as="geometry"><mxPoint y="275" as="offset"/></mxGeometry></mxCell><mxCell id="14" value="&lt;span style=&quot;font-size: 20px&quot;&gt;&lt;b&gt;Luna&lt;/b&gt;&lt;/span&gt;&lt;br&gt;&lt;br&gt;This is a wider card with supporting text below as a natural lead-in to additional content. This content is a little bit longer." style="html=1;shadow=0;dashed=0;shape=mxgraph.bootstrap.rrect;rSize=5;strokeColor=#DFDFDF;html=1;whiteSpace=wrap;fillColor=#ffffff;fontColor=#000000;verticalAlign=top;align=left;spacing=20;spacingBottom=0;fontSize=14;spacingTop=160;" vertex="1" parent="1"><mxGeometry x="30" y="530" width="370" height="290" as="geometry"/></mxCell><mxCell id="15" value="Imagine animalut" style="html=1;shadow=0;dashed=0;shape=mxgraph.bootstrap.topButton;rSize=5;perimeter=none;whiteSpace=wrap;fillColor=#868E96;strokeColor=#DFDFDF;fontColor=#DEE2E6;resizeWidth=1;fontSize=18;" vertex="1" parent="14"><mxGeometry width="370" height="160" relative="1" as="geometry"/></mxCell><mxCell id="16" value="&lt;span style=&quot;font-size: 20px&quot;&gt;&lt;b&gt;Mike&lt;/b&gt;&lt;/span&gt;&lt;br&gt;This is a wider card with supporting text below as a natural lead-in to additional content. This content is a little bit longer." style="html=1;shadow=0;dashed=0;shape=mxgraph.bootstrap.rrect;rSize=5;strokeColor=#DFDFDF;html=1;whiteSpace=wrap;fillColor=#ffffff;fontColor=#000000;verticalAlign=top;align=left;spacing=20;spacingBottom=0;fontSize=14;spacingTop=160;" vertex="1" parent="1"><mxGeometry x="420" y="530" width="370" height="290" as="geometry"/></mxCell><mxCell id="17" value="Imagine animalut" style="html=1;shadow=0;dashed=0;shape=mxgraph.bootstrap.topButton;rSize=5;perimeter=none;whiteSpace=wrap;fillColor=#868E96;strokeColor=#DFDFDF;fontColor=#DEE2E6;resizeWidth=1;fontSize=18;" vertex="1" parent="16"><mxGeometry width="370" height="160" relative="1" as="geometry"/></mxCell><mxCell id="18" value="VIEW PETS" style="html=1;shadow=0;dashed=0;shape=mxgraph.bootstrap.rrect;rSize=5;strokeColor=#9673a6;strokeWidth=1;fillColor=#e1d5e7;whiteSpace=wrap;align=center;verticalAlign=middle;spacingLeft=0;fontStyle=0;fontSize=16;spacing=5;" vertex="1" parent="1"><mxGeometry x="90" y="470" width="210" height="40" as="geometry"/></mxCell><mxCell id="19" value="DONATE" style="html=1;shadow=0;dashed=0;shape=mxgraph.bootstrap.rrect;rSize=5;strokeColor=#d6b656;strokeWidth=1;fillColor=#fff2cc;whiteSpace=wrap;align=center;verticalAlign=middle;spacingLeft=0;fontStyle=0;fontSize=16;spacing=5;" vertex="1" parent="1"><mxGeometry x="300" y="890" width="210" height="40" as="geometry"/></mxCell><mxCell id="20" value="FILTER: BY NAME" style="html=1;shadow=0;dashed=0;shape=mxgraph.bootstrap.rrect;rSize=5;strokeColor=#9673a6;strokeWidth=1;fillColor=#e1d5e7;whiteSpace=wrap;align=center;verticalAlign=middle;spacingLeft=0;fontStyle=0;fontSize=16;spacing=5;" vertex="1" parent="1"><mxGeometry x="335" y="470" width="210" height="40" as="geometry"/></mxCell><mxCell id="21" value="&lt;font style=&quot;font-size: 17px&quot;&gt;Se va face un form&lt;br&gt;datele din form trebuie sa ajunga in lista de donatii ale adminului&lt;br&gt;&lt;br&gt;&lt;/font&gt;" style="text;html=1;align=center;verticalAlign=middle;resizable=0;points=[];autosize=1;strokeColor=none;" vertex="1" parent="1"><mxGeometry x="164" y="1030" width="500" height="50" as="geometry"/></mxCell><mxCell id="22" value="FILTER: CATEGORY" style="html=1;shadow=0;dashed=0;shape=mxgraph.bootstrap.rrect;rSize=5;strokeColor=#9673a6;strokeWidth=1;fillColor=#e1d5e7;whiteSpace=wrap;align=center;verticalAlign=middle;spacingLeft=0;fontStyle=0;fontSize=16;spacing=5;" vertex="1" parent="1"><mxGeometry x="560" y="470" width="220" height="40" as="geometry"/></mxCell><mxCell id="23" value="&lt;font style=&quot;font-size: 15px&quot;&gt;pe pagina de /donate va gasi informatii despre: conturi (eur/ron), adresa ChangeLifes Associations&lt;/font&gt;" style="text;html=1;align=center;verticalAlign=middle;resizable=0;points=[];autosize=1;strokeColor=none;" vertex="1" parent="1"><mxGeometry x="79" y="970" width="670" height="20" as="geometry"/></mxCell><mxCell id="24" value="MAKE AN APPOIMENT" style="html=1;shadow=0;dashed=0;shape=mxgraph.bootstrap.rrect;rSize=5;strokeColor=#A50040;strokeWidth=1;fillColor=#d80073;whiteSpace=wrap;align=center;verticalAlign=middle;spacingLeft=0;fontStyle=0;fontSize=16;spacing=5;fontColor=#ffffff;" vertex="1" parent="1"><mxGeometry x="300" y="1129" width="210" height="40" as="geometry"/></mxCell><mxCell id="25" value="&lt;span style=&quot;color: rgb(0 , 0 , 0) ; font-family: &amp;#34;helvetica&amp;#34; ; font-size: 17px ; font-style: normal ; font-weight: 400 ; letter-spacing: normal ; text-align: center ; text-indent: 0px ; text-transform: none ; word-spacing: 0px ; background-color: rgb(248 , 249 , 250) ; display: inline ; float: none&quot;&gt;Se va face un form&lt;/span&gt;&lt;br style=&quot;color: rgb(0 , 0 , 0) ; font-family: &amp;#34;helvetica&amp;#34; ; font-size: 17px ; font-style: normal ; font-weight: 400 ; letter-spacing: normal ; text-align: center ; text-indent: 0px ; text-transform: none ; word-spacing: 0px ; background-color: rgb(248 , 249 , 250)&quot;&gt;&lt;span style=&quot;color: rgb(0 , 0 , 0) ; font-family: &amp;#34;helvetica&amp;#34; ; font-size: 17px ; font-style: normal ; font-weight: 400 ; letter-spacing: normal ; text-align: center ; text-indent: 0px ; text-transform: none ; word-spacing: 0px ; background-color: rgb(248 , 249 , 250) ; display: inline ; float: none&quot;&gt;datele din form trebuie sa ajunga in lista de Appoimengts ale adminului&lt;/span&gt;" style="text;whiteSpace=wrap;html=1;" vertex="1" parent="1"><mxGeometry x="130" y="1180" width="510" height="50" as="geometry"/></mxCell><mxCell id="26" value="ChangeLifes Contact" style="html=1;shadow=0;dashed=0;shape=mxgraph.bootstrap.rrect;rSize=5;strokeColor=#006EAF;strokeWidth=1;fillColor=#1ba1e2;whiteSpace=wrap;align=center;verticalAlign=middle;spacingLeft=0;fontStyle=0;fontSize=16;spacing=5;fontColor=#ffffff;" vertex="1" parent="1"><mxGeometry x="290" y="1320" width="210" height="40" as="geometry"/></mxCell><mxCell id="27" value="&lt;font style=&quot;font-size: 17px&quot;&gt;ne poti gasi la nr de tel:.. sau pe email:&amp;nbsp;&lt;/font&gt;" style="text;html=1;align=center;verticalAlign=middle;resizable=0;points=[];autosize=1;strokeColor=none;strokeWidth=2;" vertex="1" parent="1"><mxGeometry x="230" y="1380" width="310" height="20" as="geometry"/></mxCell></root></mxGraphModel></diagram></mxfile>